<svg width="26" height="24" viewBox="0 0 26 24" fill="none" xmlns="http://www.w3.org/2000/svg">
<path d="M6.45455 14.814C8.45455 14.9845 12.7818 14.3023 14.0909 10.2093C14.0909 13.893 17.7273 14.814 19.5455 14.814M6.45455 14.814V16.8605M6.45455 14.814C5.72176 14.814 4.69364 14.6477 3.72727 14.1813M7 4.5814C5 4.5814 1 5.60465 1 9.69767C1 12.1411 2.2959 13.4905 3.72727 14.1813M7 4.5814C7.54545 3.3876 9.4 1 12.4545 1C15.5091 1 17.7273 3.3876 18.4545 4.5814M7 4.5814C6.5019 5.4 6.79246 6.62791 7 7.13953M18.4545 4.5814C20.6364 4.5814 25 5.60465 25 9.69767C25 11.9909 23.8585 13.3205 22.5348 14.0464M18.4545 4.5814C18.8909 5.8093 18.6364 6.79845 18.4545 7.13953M19.5455 14.814V16.8605M19.5455 14.814C20.3449 14.814 21.496 14.6161 22.5348 14.0464M3.72727 11.7442C3.36364 10.7209 3.18182 8.46977 5.36364 7.65116M9.18182 8.16279C9.18182 7.31008 9.83636 5.29767 12.4545 4.06977M22.2727 11.2326C22.4545 10.3798 22.3818 8.46977 20.6364 7.65116M6.45455 19.9302V20.9535C6.63636 21.6357 8.09091 23 12.4545 23C16.8182 23 19 21.6357 19.5455 20.9535V19.9302M6.45455 19.9302C8.09091 18.907 9.18182 18.907 9.18182 18.907M6.45455 19.9302V16.8605M19.5455 19.9302C18.6364 19.4186 15.7273 18.3953 10.2727 18.907M19.5455 19.9302V16.8605M6.45455 16.8605C9 16.3488 15.1818 15.6326 19.5455 16.8605M3.72727 14.1813C4.63636 14.3922 6.78182 14.507 8.09091 13.2791M22.5348 14.0464C21.3565 14.1317 18.7818 14.0977 17.9091 13.2791" stroke="#B26938"/>
</svg>
